<?xml version="1.0" standalone="no"?>
<!DOCTYPE svg PUBLIC "-//W3C//DTD SVG 20010904//EN"
 "http://www.w3.org/TR/2001/REC-SVG-20010904/DTD/svg10.dtd">
<svg version="1.0" xmlns="http://www.w3.org/2000/svg"
 width="225.000000pt" height="225.000000pt" viewBox="0 0 225.000000 225.000000"
 preserveAspectRatio="xMidYMid meet">

<g transform="translate(0.000000,225.000000) scale(0.100000,-0.100000)"
fill="#ffffff" stroke="none">
<path d="M102 2243 c-33 -6 -88 -66 -96 -103 -3 -18 -6 -282 -6 -587 0 -524 1
-553 18 -544 17 10 191 184 254 255 l35 39 36 -105 36 -105 -39 -79 c-69 -138
-111 -284 -117 -402 -6 -115 2 -144 49 -168 38 -19 53 -18 115 12 73 36 187
145 252 240 93 138 193 371 236 552 10 39 21 72 25 72 3 0 11 -19 17 -42 6
-24 21 -67 34 -96 l23 -52 -38 -148 c-75 -286 -81 -345 -42 -428 55 -119 178
-142 351 -64 65 29 151 85 196 127 l27 25 -19 61 c-98 320 -107 665 -23 955
56 192 157 395 256 513 32 38 58 71 58 74 0 6 -1605 4 -1638 -2z"/>
<path d="M2037 2214 c-100 -52 -282 -254 -376 -416 -184 -320 -253 -653 -196
-938 16 -78 50 -160 66 -160 17 0 130 120 203 215 107 138 214 296 276 406
152 271 232 504 234 679 2 207 -73 284 -207 214z"/>
<path d="M2235 1488 c-4 -17 -24 -77 -45 -132 -99 -268 -285 -572 -471 -770
-32 -35 -59 -68 -59 -74 0 -23 114 -55 213 -60 117 -5 220 18 337 78 l40 20 0
485 c0 267 -2 485 -4 485 -3 0 -8 -14 -11 -32z"/>
<path d="M123 873 c-39 -49 -83 -99 -97 -112 l-26 -24 0 -304 c0 -336 4 -363
64 -406 l31 -22 1018 -3 c1128 -3 1061 -6 1109 61 19 26 23 48 26 131 4 94 3
99 -14 91 -118 -49 -287 -68 -392 -45 -82 17 -164 64 -222 126 -28 30 -53 54
-55 54 -2 0 -33 -22 -68 -48 -135 -103 -227 -143 -328 -144 -82 -1 -138 23
-196 83 -47 49 -103 162 -126 258 -9 35 -18 65 -20 68 -2 2 -21 -25 -41 -59
-78 -134 -208 -283 -295 -339 -55 -35 -118 -39 -166 -9 -41 25 -84 105 -132
246 -33 99 -37 118 -36 209 1 58 9 136 21 188 10 48 18 87 17 87 -1 0 -34 -39
-72 -87z"/>
</g>
</svg>
