<?xml version="1.0" standalone="no"?>
<!DOCTYPE svg PUBLIC "-//W3C//DTD SVG 20010904//EN"
 "http://www.w3.org/TR/2001/REC-SVG-20010904/DTD/svg10.dtd">
<svg version="1.0" xmlns="http://www.w3.org/2000/svg"
 width="512.000000pt" height="512.000000pt" viewBox="0 0 512.000000 512.000000"
 preserveAspectRatio="xMidYMid meet">

<g transform="translate(0.000000,512.000000) scale(0.100000,-0.100000)"
fill="#ffffff" stroke="none">
<path d="M2790 4873 c-479 -94 -841 -170 -849 -178 -18 -17 -125 -1789 -110
-1817 5 -10 17 -18 27 -18 9 0 128 25 263 57 163 37 254 54 272 49 18 -4 33
-19 43 -39 15 -31 13 -48 -55 -379 -39 -191 -71 -358 -71 -372 0 -49 25 -49
203 5 150 46 169 49 194 37 15 -7 34 -24 42 -38 13 -24 4 -74 -102 -585 -63
-307 -113 -565 -110 -572 11 -29 41 -34 66 -11 14 13 337 646 728 1425 l704
1403 -21 20 -21 21 -267 -52 -267 -52 -27 20 c-54 40 -57 28 117 631 90 309
161 572 159 584 -2 19 -10 23 -43 25 -22 0 -416 -73 -875 -164z"/>
<path d="M161 4494 c-35 -29 -53 -82 -41 -122 4 -15 539 -958 1188 -2097 890
-1560 1187 -2074 1209 -2087 15 -10 47 -18 71 -18 34 0 49 6 76 33 22 21 426
734 1176 2077 629 1124 1149 2060 1157 2079 31 74 -28 161 -110 161 -47 0
-1304 -226 -1326 -238 -14 -8 -130 -386 -131 -424 0 -41 30 -40 298 12 274 53
299 54 321 11 6 -11 11 -31 11 -45 0 -31 -1399 -2833 -1426 -2858 -19 -16 -41
-21 -76 -19 -32 2 -58 38 -58 79 0 21 50 277 110 569 61 292 110 538 110 547
0 8 -9 20 -20 26 -16 9 -54 0 -187 -41 -162 -49 -168 -50 -200 -35 -21 10 -35
25 -40 43 -5 19 17 145 66 390 77 378 78 393 32 393 -9 0 -128 -26 -264 -57
-231 -53 -250 -56 -275 -42 -53 29 -53 14 -9 732 22 367 38 669 36 671 -9 9
-1582 286 -1623 286 -33 0 -52 -7 -75 -26z"/>
</g>
</svg>
